#!OML:ASF H:\Terrain\Patient Classification 1\PLAYGROUND\JustinFriday\JustinFriday.ASF
:FULLY-SPECIFIED
:DEGREES
1096
root 11.6644 18.3513 20.4209 174.604 0.775921 -180.032
lowerback 15.0326 -0.344708 1.36104
upperback -4.10888 0.0254934 1.4005
thorax -13.0497 -0.00760264 0.769964
lowerneck -2.82829 -4.99167 -9.78871
upperneck 0.327776 -6.42203 10.796
head 1.23721 -3.0818 4.67995
rclavicle -1.09332e-015 1.47101e-014
rhumerus 100.423 -26.9329 -39.3701
rradius 28.33
rwrist -4.14619
rhand -25.9424 -13.7168
rfingers 7.12502
rthumb 0.601355 -403.696
lclavicle -1.09332e-015 1.47101e-014
lhumerus 98.817 29.3372 39.9494
lradius 23.4403
lwrist -6.19757
lhand -20.6029 -5.73971
lfingers 7.12502
lthumb 5.75778 24.1621
rfemur -12.2353 -8.37617 24.5745
rtibia 41.7694
rfoot 0.103391 -3.78085
rtoes 19.7069
lfemur 0.426592 -0.116507 -13.4675
ltibia 43.2093
lfoot 10.807 -13.0732
ltoes -23.6916
1097
root 11.6636 18.3522 20.4332 174.639 1.07932 -180.137
lowerback 15.1375 -0.313484 1.21358
upperback -4.11052 0.0344145 1.37423
thorax -13.1146 0.00605775 0.823315
lowerneck -2.65022 -4.86466 -9.64355
upperneck 0.668255 -6.29429 10.5905
head 1.2824 -3.02694 4.59893
rclavicle -2.98177e-016 1.90833e-014
rhumerus 100.238 -27.12 -38.9464
rradius 28.5368
rwrist -5.11479
rhand -26.3109 -13.4827
rfingers 7.12502
rthumb 0.245425 -403.462
lclavicle -2.98177e-016 1.90833e-014
lhumerus 99.9561 29.1045 41.8134
lradius 22.9813
lwrist -8.64857
lhand -19.8262 -6.04821
lfingers 7.12502
lthumb 6.50758 23.8318
rfemur -12.3602 -8.23246 24.4383
rtibia 41.7773
rfoot 0.342164 -3.44138
rtoes 20.8373
lfemur 0.496007 -0.0273951 -13.6038
ltibia 43.131
lfoot 10.7937 -12.8061
ltoes -23.3244
1098
root 11.6587 18.3491 20.4515 174.649 1.45721 -179.614
lowerback 15.3562 -0.316789 1.78017
upperback -4.07442 0.171475 1.48662
thorax -13.2068 0.0327258 0.591698
lowerneck -2.5893 -4.82463 -9.10723
upperneck 1.08591 -6.28332 9.99019
head 1.35573 -3.03082 4.32591
rclavicle 5.46658e-016 2.38542e-015
rhumerus 100.114 -27.3658 -38.666
rradius 28.6961
rwrist -5.72861
rhand -26.5732 -13.4459
rfingers 7.12502
rthumb -0.00787189 -403.426
lclavicle 5.46658e-016 2.38542e-015
lhumerus 101.022 28.7977 43.5143
lradius 22.7103
lwrist -10.7136
lhand -19.3144 -6.34313
lfingers 7.12502
lthumb 7.00169 23.5211
rfemur -12.4347 -8.04696 24.9919
rtibia 41.7033
rfoot 0.708981 -3.39561
rtoes 20.8172
lfemur 0.539649 0.363287 -12.9793
ltibia 43.1179
lfoot 10.7123 -12.8187
ltoes -23.4325
1099
root 11.6557 18.3421 20.4734 174.768 1.72659 -179.097
lowerback 15.5372 -0.330719 2.36092
upperback -4.07591 0.301514 1.59644
thorax -13.3186 0.054945 0.350741
lowerneck -2.60978 -4.84828 -8.97906
upperneck 1.7472 -6.35501 9.78686
head 1.54912 -3.06675 4.23255
rclavicle -3.47873e-015 7.95139e-015
rhumerus 100.13 -27.575 -38.5256
rradius 28.6761
rwrist -5.96433
rhand -26.7104 -13.5763
rfingers 7.12502
rthumb -0.140401 -403.556
lclavicle -3.47873e-015 7.95139e-015
lhumerus 101.65 28.5829 44.5251
lradius 22.6843
lwrist -11.8173
lhand -19.1448 -6.51563
lfingers 7.12502
lthumb 7.16539 23.3431
rfemur -12.6369 -8.06592 25.5478
rtibia 41.5698
rfoot 1.18565 -3.35592
rtoes 21.1239
lfemur 0.399546 0.854338 -12.3483
ltibia 43.1342
lfoot 10.3157 -13.3158
ltoes -25.4168
